<svg xmlns="http://www.w3.org/2000/svg" width="640" height="360" viewBox="0 0 640 360">
  <defs>
    <linearGradient id="bg" x1="0%" y1="0%" x2="100%" y2="100%">
      <stop offset="0%" stop-color="#161a23"/>
      <stop offset="100%" stop-color="#0a0b0f"/>
    </linearGradient>
    <linearGradient id="acc" x1="0%" y1="0%" x2="100%" y2="0%">
      <stop offset="0%" stop-color="#3b82f6"/>
      <stop offset="100%" stop-color="#60a5fa"/>
    </linearGradient>
  </defs>
  <rect width="640" height="360" fill="url(#bg)"/>
  <rect x="60" y="70" width="520" height="220" rx="12" fill="#1c2130" stroke="url(#acc)" stroke-width="1" opacity="0.9"/>
  <rect x="60" y="70" width="520" height="36" rx="12" fill="#111319"/>
  <text x="80" y="94" font-family="'JetBrains Mono',monospace" font-size="11" fill="#60a5fa">GET /api/posts?page=1</text>
  <rect x="80" y="126" width="480" height="140" rx="8" fill="#0a0b0f" opacity="0.4"/>
  <rect x="100" y="142" width="440" height="30" rx="6" fill="#111319" opacity="0.6"/>
  <rect x="116" y="152" width="120" height="10" rx="5" fill="url(#acc)" opacity="0.5"/>
  <rect x="116" y="166" width="200" height="5" rx="2" fill="#a8b0c0" opacity="0.15"/>
  <rect x="100" y="182" width="440" height="30" rx="6" fill="#111319" opacity="0.4"/>
  <rect x="116" y="192" width="100" height="10" rx="5" fill="url(#acc)" opacity="0.4"/>
  <rect x="116" y="206" width="180" height="5" rx="2" fill="#a8b0c0" opacity="0.12"/>
  <rect x="100" y="222" width="440" height="30" rx="6" fill="#111319" opacity="0.3"/>
  <rect x="116" y="232" width="140" height="10" rx="5" fill="url(#acc)" opacity="0.3"/>
  <rect x="116" y="246" width="160" height="5" rx="2" fill="#a8b0c0" opacity="0.1"/>
  <text x="320" y="330" font-family="'JetBrains Mono',monospace" font-size="14" fill="#60a5fa" text-anchor="middle">Blog Engine API</text>
</svg>
